<?xml version="1.0" encoding="utf-8"?>
<svg version="1.1" xmlns:xlink="http://www.w3.org/1999/xlink" width="12px" height="12px" viewBox="257 48  12 12" xmlns="http://www.w3.org/2000/svg">
  <path d="M 263 48  C 266.36 48  269 50.64  269 54  C 269 57.36  266.36 60  263 60  C 259.64 60  257 57.36  257 54  C 257 50.64  259.64 48  263 48  Z " fill-rule="nonzero" fill="#ffffff" stroke="none" />
  <path d="M 263 48.5  C 266.08 48.5  268.5 50.92  268.5 54  C 268.5 57.08  266.08 59.5  263 59.5  C 259.92 59.5  257.5 57.08  257.5 54  C 257.5 50.92  259.92 48.5  263 48.5  Z " stroke-width="1" stroke="#0089ff" fill="none" />
  <path d="M 263 57  C 261.32 57  260 55.68  260 54  C 260 52.32  261.32 51  263 51  C 264.68 51  266 52.32  266 54  C 266 55.68  264.68 57  263 57  " fill-rule="nonzero" fill="#0089ff" stroke="none" />
</svg>