<?xml version="1.0" encoding="utf-8"?>
<svg version="1.1" xmlns:xlink="http://www.w3.org/1999/xlink" width="482px" height="230px" xmlns="http://www.w3.org/2000/svg">
  <g transform="matrix(1 0 0 1 -120 -418 )">
    <path d="M 121 426  A 7 7 0 0 1 128 419 L 594 419  A 7 7 0 0 1 601 426 L 601 640  A 7 7 0 0 1 594 647 L 128 647  A 7 7 0 0 1 121 640 L 121 426  Z " fill-rule="nonzero" fill="#ffffff" stroke="none" />
    <path d="M 120.5 426  A 7.5 7.5 0 0 1 128 418.5 L 594 418.5  A 7.5 7.5 0 0 1 601.5 426 L 601.5 640  A 7.5 7.5 0 0 1 594 647.5 L 128 647.5  A 7.5 7.5 0 0 1 120.5 640 L 120.5 426  Z " stroke-width="1" stroke="#b9b9b9" fill="none" stroke-opacity="0.349019607843137" />
  </g>
</svg>