<?xml version="1.0" encoding="utf-8"?>
<svg version="1.1" xmlns:xlink="http://www.w3.org/1999/xlink" width="221px" height="85px" xmlns="http://www.w3.org/2000/svg">
  <g transform="matrix(1 0 0 1 -259 -87 )">
    <path d="M 260 94  A 6 6 0 0 1 266 88 L 473 88  A 6 6 0 0 1 479 94 L 479 165  A 6 6 0 0 1 473 171 L 266 171  A 6 6 0 0 1 260 165 L 260 94  Z " fill-rule="nonzero" fill="#ffffff" stroke="none" />
    <path d="M 259.5 94  A 6.5 6.5 0 0 1 266 87.5 L 473 87.5  A 6.5 6.5 0 0 1 479.5 94 L 479.5 165  A 6.5 6.5 0 0 1 473 171.5 L 266 171.5  A 6.5 6.5 0 0 1 259.5 165 L 259.5 94  Z " stroke-width="1" stroke="#b9b9b9" fill="none" stroke-opacity="0.349019607843137" />
  </g>
</svg>