<?xml version="1.0" encoding="utf-8"?>
<svg version="1.1" xmlns:xlink="http://www.w3.org/1999/xlink" width="12px" height="12px" viewBox="110 114  12 12" xmlns="http://www.w3.org/2000/svg">
  <path d="M 116 114  C 119.36 114  122 116.64  122 120  C 122 123.36  119.36 126  116 126  C 112.64 126  110 123.36  110 120  C 110 116.64  112.64 114  116 114  Z " fill-rule="nonzero" fill="#f0f0f0" stroke="none" />
  <path d="M 116 114.5  C 119.08 114.5  121.5 116.92  121.5 120  C 121.5 123.08  119.08 125.5  116 125.5  C 112.92 125.5  110.5 123.08  110.5 120  C 110.5 116.92  112.92 114.5  116 114.5  Z " stroke-width="1" stroke="#797979" fill="none" />
  <path d="M 116 123  C 114.32 123  113 121.68  113 120  C 113 118.32  114.32 117  116 117  C 117.68 117  119 118.32  119 120  C 119 121.68  117.68 123  116 123  " fill-rule="nonzero" fill="#797979" stroke="none" />
</svg>