<?xml version="1.0" encoding="utf-8"?>
<svg version="1.1" xmlns:xlink="http://www.w3.org/1999/xlink" width="12px" height="12px" viewBox="210 114  12 12" xmlns="http://www.w3.org/2000/svg">
  <path d="M 216 114  C 219.36 114  222 116.64  222 120  C 222 123.36  219.36 126  216 126  C 212.64 126  210 123.36  210 120  C 210 116.64  212.64 114  216 114  Z " fill-rule="nonzero" fill="#f0f0f0" stroke="none" />
  <path d="M 216 114.5  C 219.08 114.5  221.5 116.92  221.5 120  C 221.5 123.08  219.08 125.5  216 125.5  C 212.92 125.5  210.5 123.08  210.5 120  C 210.5 116.92  212.92 114.5  216 114.5  Z " stroke-width="1" stroke="#797979" fill="none" />
  <path d="M 216 123  C 214.32 123  213 121.68  213 120  C 213 118.32  214.32 117  216 117  C 217.68 117  219 118.32  219 120  C 219 121.68  217.68 123  216 123  " fill-rule="nonzero" fill="#797979" stroke="none" />
</svg>