<?xml version="1.0" encoding="utf-8"?>
<svg version="1.1" xmlns:xlink="http://www.w3.org/1999/xlink" width="14px" height="14px" xmlns="http://www.w3.org/2000/svg">
  <g transform="matrix(1 0 0 1 -30 -156 )">
    <path d="M 31 163  A 6 6 0 0 1 37 157 A 6 6 0 0 1 43 163 A 6 6 0 0 1 37 169 A 6 6 0 0 1 31 163 Z " fill-rule="nonzero" fill="#ffffff" stroke="none" />
    <path d="M 30.5 163  A 6.5 6.5 0 0 1 37 156.5 A 6.5 6.5 0 0 1 43.5 163 A 6.5 6.5 0 0 1 37 169.5 A 6.5 6.5 0 0 1 30.5 163 Z " stroke-width="1" stroke="#b9b9b9" fill="none" stroke-opacity="0.349019607843137" />
  </g>
</svg>