<?xml version="1.0" encoding="utf-8"?>
<svg version="1.1" xmlns:xlink="http://www.w3.org/1999/xlink" width="12px" height="12px" viewBox="24 274  12 12" xmlns="http://www.w3.org/2000/svg">
  <path d="M 30 274  C 33.36 274  36 276.64  36 280  C 36 283.36  33.36 286  30 286  C 26.64 286  24 283.36  24 280  C 24 276.64  26.64 274  30 274  Z " fill-rule="nonzero" fill="#ffffff" stroke="none" />
  <path d="M 30 274.5  C 33.08 274.5  35.5 276.92  35.5 280  C 35.5 283.08  33.08 285.5  30 285.5  C 26.92 285.5  24.5 283.08  24.5 280  C 24.5 276.92  26.92 274.5  30 274.5  Z " stroke-width="1" stroke="#797979" fill="none" />
  <path d="M 30 283  C 28.32 283  27 281.68  27 280  C 27 278.32  28.32 277  30 277  C 31.68 277  33 278.32  33 280  C 33 281.68  31.68 283  30 283  " fill-rule="nonzero" fill="#797979" stroke="none" />
</svg>