<?xml version="1.0" encoding="utf-8"?>
<svg version="1.1" xmlns:xlink="http://www.w3.org/1999/xlink" width="12px" height="12px" viewBox="24 366  12 12" xmlns="http://www.w3.org/2000/svg">
  <path d="M 30 366  C 33.36 366  36 368.64  36 372  C 36 375.36  33.36 378  30 378  C 26.64 378  24 375.36  24 372  C 24 368.64  26.64 366  30 366  Z " fill-rule="nonzero" fill="#f0f0f0" stroke="none" />
  <path d="M 30 366.5  C 33.08 366.5  35.5 368.92  35.5 372  C 35.5 375.08  33.08 377.5  30 377.5  C 26.92 377.5  24.5 375.08  24.5 372  C 24.5 368.92  26.92 366.5  30 366.5  Z " stroke-width="1" stroke="#797979" fill="none" />
  <path d="M 30 375  C 28.32 375  27 373.68  27 372  C 27 370.32  28.32 369  30 369  C 31.68 369  33 370.32  33 372  C 33 373.68  31.68 375  30 375  " fill-rule="nonzero" fill="#797979" stroke="none" />
</svg>