<?xml version="1.0" encoding="utf-8"?>
<svg version="1.1" xmlns:xlink="http://www.w3.org/1999/xlink" width="12px" height="12px" viewBox="24 106  12 12" xmlns="http://www.w3.org/2000/svg">
  <path d="M 30 106  C 33.36 106  36 108.64  36 112  C 36 115.36  33.36 118  30 118  C 26.64 118  24 115.36  24 112  C 24 108.64  26.64 106  30 106  Z " fill-rule="nonzero" fill="#f0f0f0" stroke="none" />
  <path d="M 30 106.5  C 33.08 106.5  35.5 108.92  35.5 112  C 35.5 115.08  33.08 117.5  30 117.5  C 26.92 117.5  24.5 115.08  24.5 112  C 24.5 108.92  26.92 106.5  30 106.5  Z " stroke-width="1" stroke="#797979" fill="none" />
  <path d="M 30 115  C 28.32 115  27 113.68  27 112  C 27 110.32  28.32 109  30 109  C 31.68 109  33 110.32  33 112  C 33 113.68  31.68 115  30 115  " fill-rule="nonzero" fill="#797979" stroke="none" />
</svg>