<?xml version="1.0" encoding="utf-8"?>
<svg version="1.1" xmlns:xlink="http://www.w3.org/1999/xlink" width="12px" height="12px" viewBox="24 138  12 12" xmlns="http://www.w3.org/2000/svg">
  <path d="M 30 138  C 33.36 138  36 140.64  36 144  C 36 147.36  33.36 150  30 150  C 26.64 150  24 147.36  24 144  C 24 140.64  26.64 138  30 138  Z " fill-rule="nonzero" fill="#ffffff" stroke="none" />
  <path d="M 30 138.5  C 33.08 138.5  35.5 140.92  35.5 144  C 35.5 147.08  33.08 149.5  30 149.5  C 26.92 149.5  24.5 147.08  24.5 144  C 24.5 140.92  26.92 138.5  30 138.5  Z " stroke-width="1" stroke="#797979" fill="none" />
  <path d="M 30 147  C 28.32 147  27 145.68  27 144  C 27 142.32  28.32 141  30 141  C 31.68 141  33 142.32  33 144  C 33 145.68  31.68 147  30 147  " fill-rule="nonzero" fill="#797979" stroke="none" />
</svg>