<?xml version="1.0" encoding="utf-8"?>
<svg version="1.1" xmlns:xlink="http://www.w3.org/1999/xlink" width="12px" height="12px" viewBox="24 170  12 12" xmlns="http://www.w3.org/2000/svg">
  <path d="M 30 170  C 33.36 170  36 172.64  36 176  C 36 179.36  33.36 182  30 182  C 26.64 182  24 179.36  24 176  C 24 172.64  26.64 170  30 170  Z " fill-rule="nonzero" fill="#f0f0f0" stroke="none" />
  <path d="M 30 170.5  C 33.08 170.5  35.5 172.92  35.5 176  C 35.5 179.08  33.08 181.5  30 181.5  C 26.92 181.5  24.5 179.08  24.5 176  C 24.5 172.92  26.92 170.5  30 170.5  Z " stroke-width="1" stroke="#797979" fill="none" />
  <path d="M 30 179  C 28.32 179  27 177.68  27 176  C 27 174.32  28.32 173  30 173  C 31.68 173  33 174.32  33 176  C 33 177.68  31.68 179  30 179  " fill-rule="nonzero" fill="#797979" stroke="none" />
</svg>