<?xml version="1.0" encoding="utf-8"?>
<svg version="1.1" xmlns:xlink="http://www.w3.org/1999/xlink" width="158px" height="44px" xmlns="http://www.w3.org/2000/svg">
  <g transform="matrix(1 0 0 1 -168 0 )">
    <path d="M 169 4  A 3 3 0 0 1 172 1 L 322 1  A 3 3 0 0 1 325 4 L 325 40  A 3 3 0 0 1 322 43 L 172 43  A 3 3 0 0 1 169 40 L 169 4  Z " fill-rule="nonzero" fill="#0089ff" stroke="none" />
    <path d="M 168.5 4  A 3.5 3.5 0 0 1 172 0.5 L 322 0.5  A 3.5 3.5 0 0 1 325.5 4 L 325.5 40  A 3.5 3.5 0 0 1 322 43.5 L 172 43.5  A 3.5 3.5 0 0 1 168.5 40 L 168.5 4  Z " stroke-width="1" stroke="#b9b9b9" fill="none" stroke-opacity="0.349019607843137" />
  </g>
</svg>