<?xml version="1.0" encoding="utf-8"?>
<svg version="1.1" xmlns:xlink="http://www.w3.org/1999/xlink" width="160px" height="44px" xmlns="http://www.w3.org/2000/svg">
  <g transform="matrix(1 0 0 1 1 0 )">
    <path d="M 0 4  A 3 3 0 0 1 3 1 L 155 1  A 3 3 0 0 1 158 4 L 158 40  A 3 3 0 0 1 155 43 L 3 43  A 3 3 0 0 1 0 40 L 0 4  Z " fill-rule="nonzero" fill="#f9f9f9" stroke="none" />
    <path d="M -0.5 4  A 3.5 3.5 0 0 1 3 0.5 L 155 0.5  A 3.5 3.5 0 0 1 158.5 4 L 158.5 40  A 3.5 3.5 0 0 1 155 43.5 L 3 43.5  A 3.5 3.5 0 0 1 -0.5 40 L -0.5 4  Z " stroke-width="1" stroke="#b9b9b9" fill="none" stroke-opacity="0.349019607843137" />
  </g>
</svg>